<?xml version="1.0" encoding="UTF-8"?>
<svg width="96" height="96" viewBox="0 0 96 96" xmlns="http://www.w3.org/2000/svg" role="img" aria-label="Справка">
  <!-- Синий круг -->
  <circle cx="48" cy="48" r="48" fill="#0052a2"/>
  <!-- Белый вопросительный знак (простой, читаемый на любом размере) -->
  <path fill="#ffffff" d="M48 22c-11.6 0-20 6.9-20 16.4 0 2.2 1.8 4 4 4h4c2.2 0 3.9-1.6 4-3.7.2-4.8 3.9-7.7 8.1-7.7 4.7 0 8.1 2.8 8.1 6.9 0 3.2-1.9 5.1-5.7 7.2-5.7 3.1-9.5 6.2-9.5 12.7v1.2c0 2.2 1.8 4 4 4h4c2.2 0 4-1.8 4-4v-.8c0-3.2 1.3-4.5 5.9-7 5.4-2.9 9.3-7 9.3-13.7C72 28.7 61 22 48 22zM44 70a4 4 0 0 0 0 8h8a4 4 0 0 0 0-8h-8z"/>
</svg>
